<mxfile host="app.diagrams.net" modified="2022-09-07T04:27:35.001Z" agent="5.0 (Macintosh; Intel Mac OS X 10_15_7) AppleWebKit/537.36 (KHTML, like Gecko) Chrome/104.0.0.0 Safari/537.36" etag="SdMXs0k57ZYkXtz7NMWx" version="20.2.8" type="github">
  <diagram id="YUbIisv3YAj7e10MPu-F" name="ページ1">
    <mxGraphModel dx="1079" dy="1083" grid="1" gridSize="10" guides="1" tooltips="1" connect="1" arrows="1" fold="1" page="0" pageScale="1" pageWidth="827" pageHeight="1169" math="0" shadow="0">
      <root>
        <mxCell id="0" />
        <mxCell id="1" parent="0" />
        <mxCell id="E8BZY16rewzX6lsQ2YTe-1" value="楽器を弾く" style="ellipse;whiteSpace=wrap;html=1;hachureGap=4;" parent="1" vertex="1">
          <mxGeometry x="117" y="-69" width="160" height="100" as="geometry" />
        </mxCell>
        <mxCell id="E8BZY16rewzX6lsQ2YTe-3" value="どちらの楽器を弾きたいか" style="rhombus;whiteSpace=wrap;html=1;hachureGap=4;" parent="1" vertex="1">
          <mxGeometry x="87.5" y="84" width="219" height="147" as="geometry" />
        </mxCell>
        <mxCell id="E8BZY16rewzX6lsQ2YTe-4" value="ギターを用意する" style="rounded=0;whiteSpace=wrap;html=1;hachureGap=4;" parent="1" vertex="1">
          <mxGeometry x="-92" y="290" width="160" height="80" as="geometry" />
        </mxCell>
        <mxCell id="E8BZY16rewzX6lsQ2YTe-5" value="ベースを用意する" style="rounded=0;whiteSpace=wrap;html=1;hachureGap=4;" parent="1" vertex="1">
          <mxGeometry x="373" y="303" width="160" height="80" as="geometry" />
        </mxCell>
        <mxCell id="E8BZY16rewzX6lsQ2YTe-6" value="" style="edgeStyle=none;orthogonalLoop=1;jettySize=auto;html=1;rounded=0;endArrow=open;startSize=14;endSize=14;sourcePerimeterSpacing=8;targetPerimeterSpacing=8;curved=1;exitX=0.5;exitY=1;exitDx=0;exitDy=0;entryX=0.5;entryY=0;entryDx=0;entryDy=0;" parent="1" source="E8BZY16rewzX6lsQ2YTe-1" target="E8BZY16rewzX6lsQ2YTe-3" edge="1">
          <mxGeometry width="120" relative="1" as="geometry">
            <mxPoint x="140" y="353" as="sourcePoint" />
            <mxPoint x="204" y="84" as="targetPoint" />
            <Array as="points" />
          </mxGeometry>
        </mxCell>
        <mxCell id="E8BZY16rewzX6lsQ2YTe-10" value="ギター" style="text;html=1;align=center;verticalAlign=middle;resizable=0;points=[];autosize=1;strokeColor=none;fillColor=none;hachureGap=4;" parent="1" vertex="1">
          <mxGeometry x="55" y="172" width="54" height="26" as="geometry" />
        </mxCell>
        <mxCell id="E8BZY16rewzX6lsQ2YTe-11" value="ベース" style="text;html=1;align=center;verticalAlign=middle;resizable=0;points=[];autosize=1;strokeColor=none;fillColor=none;hachureGap=4;" parent="1" vertex="1">
          <mxGeometry x="276" y="186" width="54" height="26" as="geometry" />
        </mxCell>
        <mxCell id="E8BZY16rewzX6lsQ2YTe-12" value="シールドとエフェクターと楽器を繋ぐ&lt;br&gt;電源を入れる" style="rounded=0;whiteSpace=wrap;html=1;hachureGap=4;" parent="1" vertex="1">
          <mxGeometry x="107" y="497" width="192" height="85" as="geometry" />
        </mxCell>
        <mxCell id="E8BZY16rewzX6lsQ2YTe-13" value="" style="edgeStyle=none;orthogonalLoop=1;jettySize=auto;html=1;rounded=0;endArrow=open;startSize=14;endSize=14;sourcePerimeterSpacing=8;targetPerimeterSpacing=8;curved=1;exitX=0.5;exitY=1;exitDx=0;exitDy=0;entryX=0.292;entryY=0;entryDx=0;entryDy=0;entryPerimeter=0;" parent="1" source="E8BZY16rewzX6lsQ2YTe-4" target="E8BZY16rewzX6lsQ2YTe-12" edge="1">
          <mxGeometry width="120" relative="1" as="geometry">
            <mxPoint x="65" y="577" as="sourcePoint" />
            <mxPoint x="185" y="577" as="targetPoint" />
            <Array as="points" />
          </mxGeometry>
        </mxCell>
        <mxCell id="E8BZY16rewzX6lsQ2YTe-14" value="" style="edgeStyle=none;orthogonalLoop=1;jettySize=auto;html=1;rounded=0;endArrow=open;startSize=14;endSize=14;sourcePerimeterSpacing=8;targetPerimeterSpacing=8;curved=1;exitX=0.5;exitY=1;exitDx=0;exitDy=0;entryX=0.688;entryY=0;entryDx=0;entryDy=0;entryPerimeter=0;" parent="1" source="E8BZY16rewzX6lsQ2YTe-5" target="E8BZY16rewzX6lsQ2YTe-12" edge="1">
          <mxGeometry width="120" relative="1" as="geometry">
            <mxPoint x="65" y="577" as="sourcePoint" />
            <mxPoint x="203" y="500" as="targetPoint" />
            <Array as="points" />
          </mxGeometry>
        </mxCell>
        <mxCell id="E8BZY16rewzX6lsQ2YTe-16" value="パソコンの電源を入れる" style="rounded=0;whiteSpace=wrap;html=1;hachureGap=4;" parent="1" vertex="1">
          <mxGeometry x="107" y="645" width="199" height="65" as="geometry" />
        </mxCell>
        <mxCell id="E8BZY16rewzX6lsQ2YTe-17" value="" style="edgeStyle=none;orthogonalLoop=1;jettySize=auto;html=1;rounded=0;endArrow=open;startSize=14;endSize=14;sourcePerimeterSpacing=8;targetPerimeterSpacing=8;curved=1;exitX=0.5;exitY=1;exitDx=0;exitDy=0;" parent="1" source="E8BZY16rewzX6lsQ2YTe-12" edge="1">
          <mxGeometry width="120" relative="1" as="geometry">
            <mxPoint x="207" y="589" as="sourcePoint" />
            <mxPoint x="203" y="649" as="targetPoint" />
            <Array as="points" />
          </mxGeometry>
        </mxCell>
        <mxCell id="E8BZY16rewzX6lsQ2YTe-18" value="エフェクターと、DAWを繋ぐ" style="rounded=0;whiteSpace=wrap;html=1;hachureGap=4;" parent="1" vertex="1">
          <mxGeometry x="116.75" y="788" width="179.5" height="74" as="geometry" />
        </mxCell>
        <mxCell id="E8BZY16rewzX6lsQ2YTe-20" value="" style="edgeStyle=none;orthogonalLoop=1;jettySize=auto;html=1;rounded=0;endArrow=open;startSize=14;endSize=14;sourcePerimeterSpacing=8;targetPerimeterSpacing=8;curved=1;exitX=0.5;exitY=1;exitDx=0;exitDy=0;entryX=0.5;entryY=0;entryDx=0;entryDy=0;" parent="1" source="E8BZY16rewzX6lsQ2YTe-16" target="E8BZY16rewzX6lsQ2YTe-18" edge="1">
          <mxGeometry width="120" relative="1" as="geometry">
            <mxPoint x="103" y="693" as="sourcePoint" />
            <mxPoint x="223" y="693" as="targetPoint" />
            <Array as="points" />
          </mxGeometry>
        </mxCell>
        <mxCell id="E8BZY16rewzX6lsQ2YTe-23" value="ヘッドホンを装着して、楽器を手に取る" style="rounded=0;whiteSpace=wrap;html=1;hachureGap=4;" parent="1" vertex="1">
          <mxGeometry x="89.5" y="956" width="234" height="80" as="geometry" />
        </mxCell>
        <mxCell id="E8BZY16rewzX6lsQ2YTe-24" value="" style="edgeStyle=none;orthogonalLoop=1;jettySize=auto;html=1;rounded=0;endArrow=open;startSize=14;endSize=14;sourcePerimeterSpacing=8;targetPerimeterSpacing=8;curved=1;exitX=0.5;exitY=1;exitDx=0;exitDy=0;entryX=0.5;entryY=0;entryDx=0;entryDy=0;" parent="1" source="E8BZY16rewzX6lsQ2YTe-18" target="E8BZY16rewzX6lsQ2YTe-23" edge="1">
          <mxGeometry width="120" relative="1" as="geometry">
            <mxPoint x="148" y="933" as="sourcePoint" />
            <mxPoint x="268" y="933" as="targetPoint" />
            <Array as="points" />
          </mxGeometry>
        </mxCell>
        <mxCell id="E8BZY16rewzX6lsQ2YTe-25" value="パソコンで弾きたい曲を探す" style="rhombus;whiteSpace=wrap;html=1;hachureGap=4;" parent="1" vertex="1">
          <mxGeometry x="107" y="1134" width="200" height="138" as="geometry" />
        </mxCell>
        <mxCell id="E8BZY16rewzX6lsQ2YTe-26" value="曲に合わせて弾く" style="rounded=0;whiteSpace=wrap;html=1;hachureGap=4;" parent="1" vertex="1">
          <mxGeometry x="127" y="1391" width="160" height="80" as="geometry" />
        </mxCell>
        <mxCell id="E8BZY16rewzX6lsQ2YTe-27" value="" style="edgeStyle=none;orthogonalLoop=1;jettySize=auto;html=1;rounded=0;endArrow=open;startSize=14;endSize=14;sourcePerimeterSpacing=8;targetPerimeterSpacing=8;curved=1;exitX=0.5;exitY=1;exitDx=0;exitDy=0;entryX=0.5;entryY=0;entryDx=0;entryDy=0;" parent="1" source="E8BZY16rewzX6lsQ2YTe-23" target="E8BZY16rewzX6lsQ2YTe-25" edge="1">
          <mxGeometry width="120" relative="1" as="geometry">
            <mxPoint x="164" y="1137" as="sourcePoint" />
            <mxPoint x="284" y="1137" as="targetPoint" />
            <Array as="points" />
          </mxGeometry>
        </mxCell>
        <mxCell id="E8BZY16rewzX6lsQ2YTe-28" value="" style="edgeStyle=none;orthogonalLoop=1;jettySize=auto;html=1;rounded=0;endArrow=open;startSize=14;endSize=14;sourcePerimeterSpacing=8;targetPerimeterSpacing=8;curved=1;exitX=0.5;exitY=1;exitDx=0;exitDy=0;entryX=0.5;entryY=0;entryDx=0;entryDy=0;" parent="1" source="E8BZY16rewzX6lsQ2YTe-25" target="E8BZY16rewzX6lsQ2YTe-26" edge="1">
          <mxGeometry width="120" relative="1" as="geometry">
            <mxPoint x="164" y="1137" as="sourcePoint" />
            <mxPoint x="284" y="1137" as="targetPoint" />
            <Array as="points" />
          </mxGeometry>
        </mxCell>
        <mxCell id="E8BZY16rewzX6lsQ2YTe-29" value="満足したか？" style="rhombus;whiteSpace=wrap;html=1;hachureGap=4;" parent="1" vertex="1">
          <mxGeometry x="112.5" y="1547" width="189" height="136" as="geometry" />
        </mxCell>
        <mxCell id="E8BZY16rewzX6lsQ2YTe-30" value="" style="edgeStyle=none;orthogonalLoop=1;jettySize=auto;html=1;rounded=0;endArrow=open;startSize=14;endSize=14;sourcePerimeterSpacing=8;targetPerimeterSpacing=8;curved=1;exitX=0.5;exitY=1;exitDx=0;exitDy=0;entryX=0.5;entryY=0;entryDx=0;entryDy=0;" parent="1" source="E8BZY16rewzX6lsQ2YTe-26" target="E8BZY16rewzX6lsQ2YTe-29" edge="1">
          <mxGeometry width="120" relative="1" as="geometry">
            <mxPoint x="165" y="1313" as="sourcePoint" />
            <mxPoint x="285" y="1313" as="targetPoint" />
            <Array as="points" />
          </mxGeometry>
        </mxCell>
        <mxCell id="E8BZY16rewzX6lsQ2YTe-33" value="NO" style="text;html=1;align=center;verticalAlign=middle;resizable=0;points=[];autosize=1;strokeColor=none;fillColor=none;hachureGap=4;" parent="1" vertex="1">
          <mxGeometry x="87" y="1636" width="36" height="26" as="geometry" />
        </mxCell>
        <mxCell id="E8BZY16rewzX6lsQ2YTe-34" value="曲を見つける" style="text;html=1;align=center;verticalAlign=middle;resizable=0;points=[];autosize=1;strokeColor=none;fillColor=none;hachureGap=4;" parent="1" vertex="1">
          <mxGeometry x="206.25" y="1272" width="90" height="26" as="geometry" />
        </mxCell>
        <mxCell id="E8BZY16rewzX6lsQ2YTe-35" value="楽器を片付ける" style="rounded=0;whiteSpace=wrap;html=1;hachureGap=4;" parent="1" vertex="1">
          <mxGeometry x="127" y="1759" width="160" height="80" as="geometry" />
        </mxCell>
        <mxCell id="E8BZY16rewzX6lsQ2YTe-36" value="" style="edgeStyle=none;orthogonalLoop=1;jettySize=auto;html=1;rounded=0;endArrow=open;startSize=14;endSize=14;sourcePerimeterSpacing=8;targetPerimeterSpacing=8;curved=1;exitX=0.5;exitY=1;exitDx=0;exitDy=0;entryX=0.5;entryY=0;entryDx=0;entryDy=0;" parent="1" source="E8BZY16rewzX6lsQ2YTe-29" target="E8BZY16rewzX6lsQ2YTe-35" edge="1">
          <mxGeometry width="120" relative="1" as="geometry">
            <mxPoint x="168" y="1530" as="sourcePoint" />
            <mxPoint x="288" y="1530" as="targetPoint" />
            <Array as="points" />
          </mxGeometry>
        </mxCell>
        <mxCell id="E8BZY16rewzX6lsQ2YTe-37" value="YES" style="text;html=1;align=center;verticalAlign=middle;resizable=0;points=[];autosize=1;strokeColor=none;fillColor=none;hachureGap=4;" parent="1" vertex="1">
          <mxGeometry x="216" y="1676" width="42" height="26" as="geometry" />
        </mxCell>
        <mxCell id="E8BZY16rewzX6lsQ2YTe-39" value="弾きたい曲がない" style="text;html=1;align=center;verticalAlign=middle;resizable=0;points=[];autosize=1;strokeColor=none;fillColor=none;hachureGap=4;" parent="1" vertex="1">
          <mxGeometry x="289" y="1154" width="114" height="26" as="geometry" />
        </mxCell>
        <mxCell id="E8BZY16rewzX6lsQ2YTe-40" value="終了" style="ellipse;whiteSpace=wrap;html=1;hachureGap=4;" parent="1" vertex="1">
          <mxGeometry x="105.5" y="1959" width="203" height="116" as="geometry" />
        </mxCell>
        <mxCell id="E8BZY16rewzX6lsQ2YTe-41" value="" style="edgeStyle=none;orthogonalLoop=1;jettySize=auto;html=1;rounded=0;endArrow=open;startSize=14;endSize=14;sourcePerimeterSpacing=8;targetPerimeterSpacing=8;curved=1;exitX=0.5;exitY=1;exitDx=0;exitDy=0;entryX=0.5;entryY=0;entryDx=0;entryDy=0;" parent="1" source="E8BZY16rewzX6lsQ2YTe-35" target="E8BZY16rewzX6lsQ2YTe-40" edge="1">
          <mxGeometry width="120" relative="1" as="geometry">
            <mxPoint x="118" y="1721" as="sourcePoint" />
            <mxPoint x="238" y="1721" as="targetPoint" />
            <Array as="points" />
          </mxGeometry>
        </mxCell>
        <mxCell id="Yoe6tDBPH8yvA5tx-zmI-1" value="" style="endArrow=classic;html=1;rounded=0;exitX=0;exitY=0.5;exitDx=0;exitDy=0;entryX=0.5;entryY=0;entryDx=0;entryDy=0;" edge="1" parent="1" source="E8BZY16rewzX6lsQ2YTe-3" target="E8BZY16rewzX6lsQ2YTe-4">
          <mxGeometry width="50" height="50" relative="1" as="geometry">
            <mxPoint x="201" y="287" as="sourcePoint" />
            <mxPoint x="251" y="237" as="targetPoint" />
            <Array as="points">
              <mxPoint x="-14" y="158" />
            </Array>
          </mxGeometry>
        </mxCell>
        <mxCell id="Yoe6tDBPH8yvA5tx-zmI-2" value="" style="endArrow=classic;html=1;rounded=0;exitX=1;exitY=0.5;exitDx=0;exitDy=0;entryX=0.544;entryY=0;entryDx=0;entryDy=0;entryPerimeter=0;" edge="1" parent="1" source="E8BZY16rewzX6lsQ2YTe-3" target="E8BZY16rewzX6lsQ2YTe-5">
          <mxGeometry width="50" height="50" relative="1" as="geometry">
            <mxPoint x="201" y="287" as="sourcePoint" />
            <mxPoint x="251" y="237" as="targetPoint" />
            <Array as="points">
              <mxPoint x="457" y="158" />
            </Array>
          </mxGeometry>
        </mxCell>
        <mxCell id="Yoe6tDBPH8yvA5tx-zmI-3" value="" style="endArrow=classic;html=1;rounded=0;exitX=0;exitY=0.5;exitDx=0;exitDy=0;entryX=0;entryY=0.5;entryDx=0;entryDy=0;" edge="1" parent="1" source="E8BZY16rewzX6lsQ2YTe-29" target="E8BZY16rewzX6lsQ2YTe-25">
          <mxGeometry width="50" height="50" relative="1" as="geometry">
            <mxPoint x="201" y="1370" as="sourcePoint" />
            <mxPoint x="251" y="1320" as="targetPoint" />
            <Array as="points">
              <mxPoint x="-1" y="1615" />
              <mxPoint y="1199" />
            </Array>
          </mxGeometry>
        </mxCell>
        <mxCell id="Yoe6tDBPH8yvA5tx-zmI-6" value="" style="endArrow=classic;html=1;rounded=0;exitX=1;exitY=0.5;exitDx=0;exitDy=0;entryX=1.006;entryY=0.6;entryDx=0;entryDy=0;entryPerimeter=0;" edge="1" parent="1" source="E8BZY16rewzX6lsQ2YTe-25" target="E8BZY16rewzX6lsQ2YTe-35">
          <mxGeometry width="50" height="50" relative="1" as="geometry">
            <mxPoint x="201" y="1494" as="sourcePoint" />
            <mxPoint x="251" y="1444" as="targetPoint" />
            <Array as="points">
              <mxPoint x="440" y="1199" />
              <mxPoint x="440" y="1807" />
            </Array>
          </mxGeometry>
        </mxCell>
      </root>
    </mxGraphModel>
  </diagram>
</mxfile>
